<?xml version="1.0" encoding="UTF-8"?><svg id="Layer_1" xmlns="http://www.w3.org/2000/svg" viewBox="0 0 49.2 49.76"><path d="M0,0v49.76h49.2V0H0ZM40.45,41.81l-4.13-10.61h-13.58l-.85,2.22,3.25,8.39h-3.04l-1.73-4.45-1.71,4.45h-4.37l2.81-7.22h-7.06l-2.78,7.22h-2.97l9.12-23.43h2.65l3.67,9.47,7.96-20.45h3.89l13.34,34.42h-4.46Z"/><path d="M15.46,23.97c-.15-.46-.3-.93-.44-1.42-.14-.49-.26-.87-.34-1.13-.11.44-.22.88-.34,1.32-.12.45-.24.85-.36,1.23s-.22.69-.31.95l-2.65,7.06h7.1l.15-.38-2.47-6.68c-.07-.17-.17-.49-.33-.95Z"/><path d="M30.7,15.6c-.22-.67-.44-1.37-.65-2.09-.21-.72-.38-1.27-.5-1.66-.16.64-.33,1.29-.5,1.94-.18.66-.35,1.26-.53,1.8-.18.54-.33,1.01-.46,1.39l-3.89,10.37h10.85l-3.84-10.37c-.1-.26-.26-.72-.48-1.39Z"/><polygon points="22.1 41.81 25.14 41.81 21.88 33.42 20.37 37.36 22.1 41.81" style="fill:none;"/><path d="M11.02,31.97l2.65-7.06c.09-.26.19-.58.31-.95s.24-.78.36-1.23c.12-.45.23-.89.34-1.32.09.26.2.64.34,1.13.14.49.29.96.44,1.42.15.46.26.77.33.95l2.47,6.68,1.46-3.75-3.67-9.47h-2.65l-9.12,23.43h2.97l2.78-7.22h7.06l1.02-2.61h-7.1Z" style="fill:none;"/><path d="M27.68,7.39l-7.96,20.45-1.46,3.75-.15.38-1.02,2.61-2.81,7.22h4.37l1.71-4.45,1.52-3.94.85-2.22h13.58l4.13,10.61h4.46L31.57,7.39h-3.89ZM24.18,27.36l3.89-10.37c.13-.38.28-.85.46-1.39.18-.54.35-1.14.53-1.8.18-.66.34-1.3.5-1.94.13.38.3.94.5,1.66.21.72.42,1.42.65,2.09.22.67.38,1.14.48,1.39l3.84,10.37h-10.85Z" style="fill:none;"/></svg>