<?xml version="1.0" encoding="UTF-8"?>
<svg xmlns="http://www.w3.org/2000/svg" version="1.1" viewBox="0 0 49.2 49.8">
  <defs>
    <style>
      .cls-1 {
        fill: #fff;
      }

      .cls-2 {
        display: none;
      }
    </style>
  </defs>
  <!-- Generator: Adobe Illustrator 28.7.1, SVG Export Plug-In . SVG Version: 1.2.0 Build 142)  -->
  <g>
    <g id="Layer_1" class="cls-2">
      <path d="M0,0v49.8h49.2V0H0ZM40.5,41.8l-4.1-10.6h-13.6l-.9,2.2,3.2,8.4h-3l-1.7-4.5-1.7,4.5h-4.4l2.8-7.2h-7.1l-2.8,7.2h-3l9.1-23.4h2.7l3.7,9.5,8-20.5h3.9l13.3,34.4h-4.5Z"/>
      <path d="M15.5,24c-.1-.5-.3-.9-.4-1.4-.1-.5-.3-.9-.3-1.1-.1.4-.2.9-.3,1.3-.1.5-.2.9-.4,1.2s-.2.7-.3,1l-2.6,7.1h7.1v-.4c.1,0-2.3-6.7-2.3-6.7,0-.2-.2-.5-.3-1h0Z"/>
      <path d="M30.7,15.6c-.2-.7-.4-1.4-.6-2.1s-.4-1.3-.5-1.7c-.2.6-.3,1.3-.5,1.9-.2.7-.4,1.3-.5,1.8s-.3,1-.5,1.4l-3.9,10.4h10.9l-3.8-10.4c-.1-.3-.3-.7-.5-1.4h0Z"/>
      <polygon class="cls-1" points="22.1 41.8 25.1 41.8 21.9 33.4 20.4 37.4 22.1 41.8"/>
      <path class="cls-1" d="M11,32l2.6-7.1c0-.3.2-.6.3-1s.2-.8.4-1.2c.1-.5.2-.9.3-1.3,0,.3.2.6.3,1.1s.3,1,.4,1.4c.1.5.3.8.3,1l2.5,6.7,1.5-3.8-3.7-9.5h-2.6l-9.1,23.4h3l2.8-7.2h7.1l1-2.6h-7.1,0Z"/>
      <path class="cls-1" d="M27.7,7.4l-8,20.5-1.5,3.8v.4c-.1,0-1.2,2.6-1.2,2.6l-2.8,7.2h4.4l1.7-4.5,1.5-3.9.9-2.2h13.6l4.1,10.6h4.5L31.6,7.4h-3.9ZM24.2,27.4l3.9-10.4c.1-.4.3-.9.5-1.4.2-.5.4-1.1.5-1.8s.3-1.3.5-1.9c.1.4.3.9.5,1.7.2.7.4,1.4.6,2.1.2.7.4,1.1.5,1.4l3.8,10.4h-10.9,0Z"/>
    </g>
    <g id="Layer_2" class="cls-2">
      <g>
        <path d="M21.9,15.7h-4.8v18h4.8c10.3,0,11.8-2.9,11-8.2-.6-4.6-2.8-9.7-11-9.7Z"/>
        <path d="M0-2.1v54h49.2V-2.1H0ZM21.1,41.4h-8.3V10.9h8.3c11.5,0,16,7.9,17,15.4,1.8,12.7-8.4,15.1-17,15.1Z"/>
      </g>
    </g>
    <g id="Layer_3">
      <path d="M19.1,10.4c.5.5.8,1,1.1,1.6s.4,1.2.4,1.7,0,.8-.2,1.1-.4.6-.6.9-.6.4-.9.6-.7.2-1.1.2-.7,0-1.1-.2-.7-.3-.9-.6-.5-.6-.7-.9-.2-.8-.2-1.3c0-.7.2-1.5.6-2.4s1-1.6,1.9-2.3,1.8-1.3,3.1-1.7,2.6-.7,4.2-.7,3,.2,4.2.7,2.3,1.1,3.1,1.9,1.5,1.7,1.9,2.7.6,2,.6,3.1c0,2.1-.9,4.1-2.6,6-.7.8-1.5,1.5-2.4,2.2s-1.7,1.4-2.5,2.2c-.8.8-1.4,1.6-1.9,2.5s-.8,1.9-.8,3.1,0,.5,0,.8,0,.6.1,1c-.3,0-.6.2-.9.2s-.6,0-.9,0c-.3-1-.4-2-.4-2.9s.1-1.6.3-2.3.5-1.3.8-1.9.7-1.1,1.1-1.6.9-1,1.3-1.4c.5-.6,1-1.1,1.4-1.6s.8-1.1,1.2-1.7.6-1.3.8-2,.3-1.6.3-2.6-.1-2.1-.4-2.9-.6-1.4-1.1-1.9-1.1-.9-1.7-1.1c-.7-.2-1.4-.3-2.3-.3s-1.9.2-2.8.5-1.6.8-2.1,1.5ZM23.6,43.4c-.5,0-.9,0-1.3-.2s-.8-.4-1.1-.7-.6-.7-.7-1.1-.3-.9-.3-1.4,0-1,.3-1.4.4-.8.7-1.1.7-.5,1.1-.7.9-.3,1.3-.3.9,0,1.3.2.8.4,1.1.7.6.7.7,1.1.3.9.3,1.4,0,1-.3,1.4-.4.8-.7,1.1-.7.5-1.1.7-.9.2-1.3.2Z"/>
    </g>
  </g>
</svg>