<?xml version="1.0" encoding="utf-8"?>
<!-- Generator: Adobe Illustrator 15.0.0, SVG Export Plug-In . SVG Version: 6.00 Build 0)  -->
<!DOCTYPE svg PUBLIC "-//W3C//DTD SVG 1.1//EN" "http://www.w3.org/Graphics/SVG/1.1/DTD/svg11.dtd">
<svg version="1.1" xmlns="http://www.w3.org/2000/svg" xmlns:xlink="http://www.w3.org/1999/xlink" x="0px" y="0px"
	 width="199.222px" height="298.727px" viewBox="0 0 199.222 298.727" enable-background="new 0 0 199.222 298.727"
	 xml:space="preserve">
<g id="SHADE">
	<g id="LWPOLYLINE_33_">
		<polygon stroke="#000000" stroke-width="0.216" stroke-linecap="square" stroke-linejoin="round" stroke-miterlimit="10" points="
			0.108,149.362 3.356,154.237 99.61,9.857 99.61,0.108 		"/>
	</g>
	<g id="LWPOLYLINE_32_">
		<polygon stroke="#000000" stroke-width="0.216" stroke-linecap="square" stroke-linejoin="round" stroke-miterlimit="10" points="
			99.61,288.874 195.869,144.49 199.114,149.362 99.61,298.619 		"/>
	</g>
	<g id="LWPOLYLINE_31_">
		<polygon stroke="#000000" stroke-width="0.216" stroke-linecap="square" stroke-linejoin="round" stroke-miterlimit="10" points="
			98.264,26.503 98.264,31.376 84.74,51.65 84.74,146.658 82.039,149.362 82.039,50.836 		"/>
	</g>
	<g id="LWPOLYLINE_29_">
		<polygon stroke="#000000" stroke-width="0.216" stroke-linecap="square" stroke-linejoin="round" stroke-miterlimit="10" points="
			119.885,59.762 119.885,54.891 103.665,30.562 103.665,149.362 106.372,146.658 106.372,39.491 		"/>
	</g>
	<g id="LWPOLYLINE_28_">
		<polygon stroke="#000000" stroke-width="0.216" stroke-linecap="square" stroke-linejoin="round" stroke-miterlimit="10" points="
			125.296,58.127 127.998,62.181 127.998,140.434 125.296,149.362 		"/>
	</g>
	<g id="LWPOLYLINE_27_">
		<polygon stroke="#000000" stroke-width="0.216" stroke-linecap="square" stroke-linejoin="round" stroke-miterlimit="10" points="
			98.264,149.362 82.039,149.362 82.039,247.892 98.264,272.224 98.264,267.351 84.74,247.076 84.74,152.066 98.264,152.066 		"/>
	</g>
	<g id="LWPOLYLINE_26_">
		<polygon stroke="#000000" stroke-width="0.216" stroke-linecap="square" stroke-linejoin="round" stroke-miterlimit="10" points="
			119.885,149.362 103.665,149.362 103.665,268.173 119.885,243.839 119.885,238.965 106.372,259.24 106.372,152.066 
			119.885,152.066 		"/>
	</g>
	<g id="LWPOLYLINE_25_">
		
			<polyline stroke="#000000" stroke-width="0.216" stroke-linecap="square" stroke-linejoin="round" stroke-miterlimit="10" points="
			155.707,103.746 157.33,106.182 128.543,149.362 125.296,149.362 155.707,103.746 		"/>
	</g>
	<g id="LWPOLYLINE_24_">
		<polygon stroke="#000000" stroke-width="0.216" stroke-linecap="square" stroke-linejoin="round" stroke-miterlimit="10" points="
			125.296,240.601 125.296,149.362 155.707,194.981 154.083,197.419 127.998,158.292 127.998,236.547 		"/>
	</g>
</g>
<g id="NOSHADE">
	<g id="LWPOLYLINE_35_">
		<polygon stroke="#000000" stroke-width="0.216" stroke-linecap="square" stroke-linejoin="round" stroke-miterlimit="10" points="
			99.61,0.108 195.869,144.49 192.617,149.362 99.61,9.857 		"/>
	</g>
	<g id="LWPOLYLINE_34_">
		<polygon stroke="#000000" stroke-width="0.216" stroke-linecap="square" stroke-linejoin="round" stroke-miterlimit="10" points="
			3.356,154.237 6.603,149.362 99.61,288.874 99.61,298.619 		"/>
	</g>
	<g id="LWPOLYLINE_30_">
		<polygon stroke="#000000" stroke-width="0.216" stroke-linecap="square" stroke-linejoin="round" stroke-miterlimit="10" points="
			98.264,26.503 98.264,21.631 79.337,50.016 79.337,248.71 98.264,277.097 98.264,272.224 82.039,247.892 82.039,50.836 		"/>
	</g>
	<g id="LWPOLYLINE_23_">
		<polygon stroke="#000000" stroke-width="0.216" stroke-linecap="square" stroke-linejoin="round" stroke-miterlimit="10" points="
			119.885,50.016 100.968,21.631 100.968,277.097 119.885,248.71 119.885,243.839 103.665,268.173 103.665,30.562 119.885,54.891 		
			"/>
	</g>
	<g id="LWPOLYLINE_22_">
		<polygon stroke="#000000" stroke-width="0.216" stroke-linecap="square" stroke-linejoin="round" stroke-miterlimit="10" points="
			122.591,54.07 122.591,244.658 125.296,240.601 125.296,58.127 		"/>
	</g>
	<g id="LWPOLYLINE_21_">
		<polygon stroke="#000000" stroke-width="0.216" stroke-linecap="square" stroke-linejoin="round" stroke-miterlimit="10" points="
			154.083,101.306 155.707,103.746 125.296,149.362 127.998,140.434 		"/>
	</g>
	<g id="LWPOLYLINE_20_">
		<polygon stroke="#000000" stroke-width="0.216" stroke-linecap="square" stroke-linejoin="round" stroke-miterlimit="10" points="
			98.264,146.658 98.264,149.362 82.039,149.362 84.74,146.658 		"/>
	</g>
	<g id="LWPOLYLINE_19_">
		<polygon stroke="#000000" stroke-width="0.216" stroke-linecap="square" stroke-linejoin="round" stroke-miterlimit="10" points="
			103.665,149.362 106.372,146.658 119.885,146.658 119.885,149.362 		"/>
	</g>
	<g id="LWPOLYLINE_18_">
		<polygon stroke="#000000" stroke-width="0.216" stroke-linecap="square" stroke-linejoin="round" stroke-miterlimit="10" points="
			157.33,192.546 155.707,194.981 125.296,149.362 128.543,149.362 		"/>
	</g>
	<g id="LWPOLYLINE_7_">
		<path stroke="#000000" stroke-width="0.216" stroke-linecap="square" stroke-linejoin="round" stroke-miterlimit="10" d="
			M71.23,126.827l2.706-4.056V77.289c0-2.391-1.937-4.325-4.333-4.325c-1.311-0.069-2.924,0.793-3.595,1.926l-40.355,60.533
			c-1.275,1.89-0.829,4.511,1.009,5.864c3.643,3.068,10.807,5.539,15.564,5.369c17.579,0.352,31.756,14.854,31.71,32.434v27.884
			c0.257,2.505-1.077,5.956-2.961,7.631c-3.953,3.972-10.386,3.985-14.36,0.025c3.881,4.852,10.958,5.64,15.813,1.764
			c2.686-1.919,4.571-6.142,4.21-9.421v-27.868c0.054-19.052-15.3-34.77-34.348-35.15c-4.288,0.152-10.729-2.073-14.008-4.832
			c-0.69-0.511-0.859-1.491-0.383-2.202l40.355-60.533c0.254-0.423,0.855-0.75,1.348-0.72c0.901,0,1.627,0.725,1.627,1.62V126.827z"
			/>
	</g>
	<g id="LWPOLYLINE_6_">
		<path stroke="#000000" stroke-width="0.216" stroke-linecap="square" stroke-linejoin="round" stroke-miterlimit="10" d="
			M60.811,216.047c-1.225-0.048-3.188-0.711-4.196-1.417l-33.214-49.82c-2.076-3.069-1.343-7.325,1.643-9.526l1.618,2.166
			c-1.838,1.354-2.284,3.972-1.009,5.865L60.811,216.047z"/>
	</g>
	<g id="LWPOLYLINE_5_">
		<path stroke="#000000" stroke-width="0.216" stroke-linecap="square" stroke-linejoin="round" stroke-miterlimit="10" d="
			M63.914,215.827c-0.805,0.227-2.278,0.33-3.103,0.22l-35.158-52.734c-1.275-1.893-0.829-4.51,1.009-5.865l1.621,2.164
			c-0.69,0.512-0.859,1.491-0.383,2.2L63.914,215.827z"/>
	</g>
	<g id="LWPOLYLINE_4_">
		<path stroke="#000000" stroke-width="0.216" stroke-linecap="square" stroke-linejoin="round" stroke-miterlimit="10" d="
			M56.615,214.629c3.975,3.96,10.407,3.947,14.36-0.025c1.884-1.676,3.218-5.126,2.961-7.631v-27.868
			c0.054-17.586-14.125-32.095-31.71-32.45c-4.758,0.17-11.922-2.3-15.564-5.369c-1.838-1.353-2.284-3.975-1.009-5.864L66.008,74.89
			c0.671-1.133,2.284-1.996,3.595-1.926c2.396,0,4.333,1.934,4.333,4.325v45.482l2.702-4.054V77.289
			c0-3.881-3.146-7.028-7.035-7.028c-2.132-0.112-4.753,1.287-5.847,3.128l-40.355,60.534c-2.076,3.072-1.343,7.328,1.643,9.529
			c4.01,3.373,11.89,6.093,17.127,5.906c16.11,0.323,29.104,13.617,29.06,29.731v27.884c0.013,1.367-0.664,3.527-1.455,4.644
			C66.977,216.083,61.086,217.43,56.615,214.629z"/>
	</g>
</g>
</svg>
